<svg width="20" height="20" viewBox="0 0 20 20" xmlns="http://www.w3.org/2000/svg">
<path fill-rule="evenodd" clip-rule="evenodd" d="M0 2.22222C0 0.994923 0.994923 0 2.22222 0H17.7778C19.0051 0 20 0.994923 20 2.22222V17.7778C20 19.0051 19.0051 20 17.7778 20H2.22222C0.994923 20 0 19.0051 0 17.7778V2.22222ZM2.22222 2.22222H5.55556V4.44444H2.22222V2.22222ZM5.55556 6.66667H2.22222V8.88889H5.55556V6.66667ZM2.22222 11.1111H5.55556V13.3333H2.22222V11.1111ZM5.55556 15.5556H2.22222V17.7778H5.55556V15.5556ZM8.33333 2.22222H11.6667V4.44444H8.33333V2.22222ZM11.6667 6.66667H8.33333V8.88889H11.6667V6.66667ZM8.33333 11.1111H11.6667V13.3333H8.33333V11.1111ZM11.6667 15.5556H8.33333V17.7778H11.6667V15.5556ZM14.4444 2.22222H17.7778V4.44444H14.4444V2.22222ZM17.7778 6.66667H14.4444V8.88889H17.7778V6.66667ZM14.4444 11.1111H17.7778V13.3333H14.4444V11.1111ZM17.7778 15.5556H14.4444V17.7778H17.7778V15.5556Z" />
</svg>
