<svg width="38" height="38" viewBox="0 0 38 38" fill="none" xmlns="http://www.w3.org/2000/svg">
<path d="M37.124 5.44855C36.2929 3.23219 34.5383 1.47757 32.3219 0.646438C30.2902 0 28.4433 0 24.5646 0H13.2058C9.41953 0 7.48021 0 5.44855 0.646438C3.23219 1.47757 1.47757 3.23219 0.646438 5.44855C0 7.48021 0 9.41953 0 13.2058V24.657C0 28.4433 0 30.3826 0.646438 32.4142C1.47757 34.6306 3.23219 36.3852 5.44855 37.2164C7.48021 37.8628 9.41953 37.8628 13.2058 37.8628H24.657C28.4433 37.8628 30.3826 37.8628 32.4142 37.2164C34.6306 36.3852 36.3852 34.6306 37.2164 32.4142C37.8628 30.3826 37.8628 28.4433 37.8628 24.657V13.2058C37.7704 9.41953 37.7704 7.48021 37.124 5.44855Z" fill="white"/>
<path d="M9.88126 15.0528C9.88126 15.7916 10.4354 16.3456 11.1741 16.3456H11.3588V15.5145H11.2665C11.1231 15.5038 10.9882 15.442 10.8866 15.3404C10.7849 15.2387 10.7231 15.1038 10.7124 14.9604C10.7231 14.817 10.7849 14.6822 10.8866 14.5805C10.9882 14.4788 11.1231 14.417 11.2665 14.4063H11.3588V13.6675H11.1741C10.4354 13.7599 9.88126 14.4063 9.88126 15.0528ZM14.2216 22.2559C14.314 25.6728 17.0844 28.3509 20.5013 28.3509C23.9182 28.3509 26.781 25.4881 26.781 21.9789C26.781 18.562 24.1952 15.7916 20.9631 15.6069H16.1609V16.3456H20.5937C23.6412 16.3456 26.0422 18.8391 26.0422 21.9789C26.0422 25.1187 23.5488 27.6121 20.5937 27.6121C17.6385 27.6121 15.2375 25.2111 15.1451 22.1636L14.2216 22.2559Z" fill="#449BF7"/>
<path d="M37.124 5.44855C36.2929 3.23219 34.5383 1.47757 32.3219 0.646438C30.2902 0 28.4433 0 24.5646 0H13.2058C9.41953 0 7.48021 0 5.44855 0.646438C3.23219 1.47757 1.47757 3.23219 0.646438 5.44855C0 7.48021 0 9.41953 0 13.2058V24.657C0 28.4433 0 30.3826 0.646438 32.4142C1.47757 34.6306 3.23219 36.3852 5.44855 37.2164C7.48021 37.8628 9.41953 37.8628 13.2058 37.8628H24.657C28.4433 37.8628 30.3826 37.8628 32.4142 37.2164C34.6306 36.3852 36.3852 34.6306 37.2164 32.4142C37.8628 30.3826 37.8628 28.4433 37.8628 24.657V13.2058C37.7704 9.41953 37.7704 7.48021 37.124 5.44855ZM20.409 31.3061C15.4222 31.3061 11.4512 27.2427 11.3588 22.1636V17.4538H11.1741C9.88127 17.4538 8.86544 16.438 8.86544 15.0528C8.86544 13.7599 9.88127 12.6517 11.1741 12.6517H11.3588V7.11082C11.3588 5.81794 12.3747 4.70976 13.6675 4.70976C14.9604 4.70976 15.9763 5.72559 15.9763 7.11082V12.7441H20.7784C25.5805 12.9288 29.4591 16.9921 29.4591 21.9789C29.5515 27.1504 25.4881 31.3061 20.409 31.3061ZM20.686 13.7599H15.9763V14.4987H20.9631C24.8417 14.6834 27.8892 17.9156 27.8892 21.9789C27.8892 26.1346 24.657 29.4591 20.5937 29.4591C16.6227 29.4591 13.4828 26.2269 13.2982 22.2559V22.1636H12.5594C12.6517 26.5963 16.2533 30.1979 20.5937 30.1979C25.0264 30.1979 28.628 26.504 28.628 21.9789C28.4433 17.5462 25.0264 13.9446 20.686 13.7599Z" fill="#449BF7"/>
<path d="M20.409 26.5963C22.9024 26.5963 24.8417 24.5646 24.8417 22.0712C24.8417 19.5778 22.81 17.5462 20.409 17.5462H15.8839V22.1636C16.0686 24.657 18.0079 26.5963 20.409 26.5963ZM13.2058 7.11082C13.2165 6.9674 13.2783 6.83258 13.38 6.73089C13.4817 6.62919 13.6165 6.56739 13.7599 6.55673C13.9033 6.56739 14.0381 6.62919 14.1398 6.73089C14.2415 6.83258 14.3033 6.9674 14.314 7.11082V22.1636H15.0528V7.11082C15.0528 6.37203 14.4987 5.81794 13.7599 5.81794C13.0211 5.81794 12.467 6.37203 12.467 7.11082V22.1636H13.2058V7.11082Z" fill="#449BF7"/>
</svg>
