<svg width="24" height="18" viewBox="0 0 24 18" fill="none" xmlns="http://www.w3.org/2000/svg">
<path d="M21.1866 2.20108C21.1037 2.10376 21.0677 1.98302 21.0767 1.86588C21.0857 1.74784 21.1398 1.63341 21.2371 1.55051L21.2398 1.54871C21.3362 1.46672 21.457 1.43157 21.5732 1.44059C21.6912 1.4496 21.8057 1.50366 21.8886 1.60097L21.8895 1.60187C22.5896 2.41823 23.1194 3.28955 23.4735 4.1906C23.8303 5.09887 24.0078 6.03777 23.9997 6.98387C23.9916 7.91646 23.8024 8.85266 23.4267 9.76813C23.0635 10.6521 22.5256 11.5162 21.8075 12.3406C21.8003 12.3506 21.7922 12.3596 21.784 12.3668C21.7011 12.4533 21.5921 12.5019 21.4804 12.5091C21.3687 12.5163 21.2542 12.483 21.1605 12.4082C21.1497 12.401 21.1398 12.392 21.1308 12.3821C21.0443 12.2992 20.9956 12.1902 20.9884 12.0784C20.9803 11.9613 21.0181 11.8397 21.1019 11.7441C21.7534 10.999 22.2391 10.2214 22.5662 9.43024C22.9013 8.62019 23.0689 7.79572 23.0762 6.97666C23.0834 6.14769 22.9248 5.32053 22.6076 4.51588C22.2913 3.71395 21.8156 2.93453 21.1866 2.20108ZM18.0384 5.22952C17.9582 5.1304 17.9248 5.00786 17.9374 4.89072C17.9492 4.77899 18.0014 4.67087 18.0915 4.59157C18.1005 4.58256 18.1104 4.57445 18.1204 4.56815C18.2168 4.49606 18.3321 4.46723 18.4438 4.47894C18.5556 4.49065 18.6637 4.54292 18.743 4.63302C18.7511 4.64113 18.7583 4.65014 18.7646 4.65915C19.0556 5.01957 19.2782 5.39621 19.4287 5.78277C19.5819 6.17473 19.6603 6.5775 19.6612 6.98387C19.6621 7.38484 19.5882 7.78491 19.4359 8.17957C19.2881 8.56252 19.0656 8.94006 18.7682 9.30409C18.688 9.4032 18.5745 9.45997 18.4573 9.47259C18.3402 9.4843 18.2177 9.45186 18.1186 9.37167L18.1177 9.37077C18.0194 9.29057 17.9627 9.17794 17.9501 9.0599C17.9383 8.94277 17.9708 8.82022 18.051 8.72111C18.2825 8.43817 18.4537 8.14894 18.5673 7.8597C18.6826 7.56686 18.7385 7.27401 18.7376 6.98387C18.7367 6.69103 18.6772 6.39638 18.561 6.10354C18.4438 5.80529 18.2681 5.51245 18.0384 5.22952ZM19.5269 3.7644C19.5197 3.7572 19.5125 3.74909 19.5071 3.74098C19.4314 3.64817 19.398 3.53373 19.4044 3.42291C19.4116 3.30847 19.4611 3.19674 19.5512 3.11294C19.5584 3.10483 19.5665 3.09853 19.5747 3.09222C19.6675 3.01653 19.7819 2.98319 19.8927 2.9895C20.0108 2.99671 20.1261 3.04897 20.2108 3.14448C20.7541 3.7581 21.165 4.39244 21.4371 5.03759C21.7093 5.68455 21.8435 6.34322 21.8318 7.0064C21.821 7.66147 21.6696 8.31563 21.3723 8.96079C21.083 9.58882 20.655 10.2096 20.0838 10.8161L20.0729 10.8278C19.9873 10.9134 19.8747 10.9575 19.7612 10.9611C19.6431 10.9647 19.5242 10.9233 19.4314 10.8359L19.4197 10.8251C19.3341 10.7386 19.289 10.6268 19.2854 10.5133C19.2818 10.3953 19.3233 10.2763 19.4107 10.1835C19.9062 9.6582 20.2748 9.12658 20.5235 8.59586C20.774 8.05973 20.901 7.5236 20.91 6.99198C20.919 6.45225 20.8064 5.91072 20.5775 5.37369C20.3442 4.83035 19.9927 4.29152 19.5269 3.7644Z" />
<path d="M12.9875 11.9353V17.2026C12.9875 17.5107 13.3791 17.6412 13.5638 17.3951L17.5384 12.0904C17.6965 11.8791 17.5462 11.5775 17.2822 11.5775H13.3453C13.1477 11.5775 12.9878 11.7379 12.9878 11.9353H12.9875Z" />
<path d="M10.8383 14.0833H14.7756C14.9731 14.0833 15.1331 13.9229 15.1331 13.7255V8.45818C15.1331 8.15016 14.7415 8.01962 14.5567 8.26575L10.5821 13.5704C10.424 13.7817 10.5743 14.0833 10.8383 14.0833Z" />
<path fill-rule="evenodd" clip-rule="evenodd" d="M8.80326 13.9587L14.1637 6.80434C14.0433 3.73839 11.9247 0.991575 8.79763 0.212018C5.00258 -0.734284 1.15808 1.57592 0.212196 5.37211C-0.734521 9.16757 1.57551 13.0123 5.37014 13.9586C6.53858 14.2499 7.71159 14.2328 8.80326 13.9587ZM8.65043 4.288C9.63206 4.62612 10.3499 5.13297 10.2089 6.07588L10.2089 6.07581L10.2092 6.07598C10.1072 6.76621 9.72449 7.10034 9.21647 7.21751C9.91397 7.58066 10.2689 8.13756 9.9308 9.10304C9.51119 10.3022 8.51429 10.4034 7.18849 10.1525L6.86678 11.442L6.08925 11.2482L6.40679 9.97606C6.20523 9.92599 5.99934 9.87286 5.78718 9.81526L5.46856 11.0935L4.69196 10.8997L5.01369 9.60781C4.93896 9.58871 4.86374 9.5691 4.78799 9.54935C4.67962 9.5211 4.57015 9.49256 4.45936 9.46478L3.44757 9.21255L3.83359 8.32256C3.83359 8.32256 4.40648 8.47488 4.39869 8.46359C4.61881 8.5181 4.71648 8.37455 4.75495 8.27889L5.2634 6.24052C5.28386 6.24542 5.3038 6.25041 5.32297 6.25521C5.33063 6.25712 5.33817 6.25901 5.34558 6.26085C5.31455 6.24838 5.28643 6.24042 5.26475 6.23491L5.62749 4.77982C5.63694 4.61462 5.58001 4.4062 5.26516 4.32762C5.27732 4.31948 4.70048 4.18725 4.70048 4.18725L4.9073 3.35683L5.97949 3.62458L5.97859 3.62859C6.13977 3.6687 6.30591 3.70676 6.47505 3.74527L6.79367 2.46844L7.57069 2.66217L7.25844 3.914C7.46707 3.96162 7.67698 4.00966 7.88138 4.06064L8.19138 2.81701L8.96888 3.01075L8.65043 4.288ZM6.19112 8.9189C6.8255 9.08645 8.21204 9.45267 8.43249 8.56686H8.43252C8.65835 7.66124 7.31391 7.35952 6.65772 7.21226C6.58433 7.19579 6.51955 7.18125 6.46653 7.16802L6.03958 8.87956C6.08308 8.89036 6.13406 8.90383 6.19112 8.9189ZM6.78934 6.4179C7.31823 6.55905 8.47201 6.86697 8.67294 6.06188H8.67301C8.87819 5.23848 7.75692 4.99023 7.20929 4.86899C7.14768 4.85535 7.09333 4.84332 7.04895 4.83225L6.66186 6.38452C6.69841 6.39363 6.74129 6.40508 6.78934 6.4179Z" />
</svg>
