<svg width="434" height="313" viewBox="0 0 434 313" fill="none" xmlns="http://www.w3.org/2000/svg">
<path fill-rule="evenodd" clip-rule="evenodd" d="M380.759 33.708C380.596 35.8242 381.247 38.0054 382.745 39.7634C394.107 53.0136 402.702 67.094 408.415 81.5814C414.145 96.1175 417.01 111.061 416.88 126.036C416.75 140.833 413.722 155.727 407.667 170.361C401.758 184.653 392.984 198.701 381.215 212.163C379.701 213.888 379.017 216.086 379.164 218.202C379.294 220.22 380.173 222.19 381.736 223.687C381.899 223.867 382.078 224.029 382.273 224.16C383.966 225.511 386.033 226.113 388.052 225.983C390.07 225.852 392.04 224.973 393.537 223.411C393.684 223.281 393.83 223.118 393.961 222.939C406.934 208.044 416.652 192.434 423.212 176.465C430 159.927 433.418 143.014 433.565 126.167C433.711 109.075 430.504 92.1132 424.058 75.705C417.661 59.4271 408.09 43.6864 395.442 28.9386L395.426 28.9223C393.928 27.1643 391.861 26.1876 389.728 26.0249C387.628 25.8621 385.447 26.4969 383.705 27.9782L383.657 28.0108C381.899 29.5083 380.922 31.5756 380.759 33.708ZM324.047 88.353C323.819 90.4691 324.421 92.6829 325.87 94.4734C330.021 99.5847 333.195 104.875 335.311 110.263C337.411 115.553 338.485 120.876 338.502 126.167C338.518 131.408 337.509 136.698 335.425 141.989C333.374 147.214 330.281 152.439 326.098 157.55C324.649 159.341 324.063 161.555 324.275 163.671C324.503 165.803 325.528 167.838 327.302 169.287L327.319 169.303C329.109 170.752 331.323 171.338 333.439 171.126C335.555 170.898 337.606 169.873 339.055 168.082C344.427 161.506 348.447 154.685 351.117 147.767C353.868 140.638 355.203 133.41 355.187 126.167C355.17 118.825 353.754 111.549 350.987 104.468C348.268 97.4849 344.248 90.6807 338.99 84.1695C338.876 84.0068 338.746 83.844 338.599 83.6975C337.167 82.0697 335.214 81.1256 333.195 80.914C331.177 80.7023 329.093 81.2232 327.351 82.5255C327.172 82.6394 326.993 82.7859 326.83 82.9487C325.203 84.3812 324.259 86.3345 324.047 88.353ZM352.403 67.5824C352.501 67.7289 352.631 67.8754 352.761 68.0056C361.177 77.5282 367.525 87.2623 371.741 97.0779C375.876 106.78 377.91 116.563 377.748 126.313C377.585 135.917 375.29 145.602 370.764 155.288C366.272 164.875 359.614 174.479 350.661 183.969C349.082 185.646 348.334 187.795 348.399 189.927C348.464 191.978 349.278 193.997 350.824 195.559L351.036 195.755C352.712 197.334 354.861 198.082 356.993 198.017C359.044 197.952 361.079 197.154 362.626 195.608L362.821 195.396C373.141 184.441 380.873 173.226 386.098 161.88C391.47 150.225 394.205 138.408 394.4 126.573C394.612 114.593 392.186 102.694 387.27 91.0063C382.354 79.3513 374.932 67.8916 365.116 56.8064C363.586 55.0809 361.502 54.1368 359.37 54.0066C357.368 53.8926 355.3 54.4949 353.624 55.8623C353.477 55.9762 353.331 56.0902 353.201 56.2367C351.573 57.7505 350.678 59.769 350.547 61.8363C350.433 63.8384 351.036 65.9057 352.403 67.5824Z" fill="black"/>
<path d="M229.62 211.617V306.773C229.62 312.337 236.694 314.696 240.032 310.249L311.834 214.418C314.69 210.602 311.975 205.153 307.205 205.153H236.084C232.515 205.153 229.626 208.051 229.626 211.617H229.62Z" fill="#FFCC00"/>
<path d="M190.795 250.421H261.922C265.492 250.421 268.38 247.523 268.38 243.957V148.801C268.38 143.236 261.306 140.878 257.968 145.324L186.166 241.155C183.31 244.972 186.025 250.421 190.795 250.421Z" fill="#FFCC00"/>
<path fill-rule="evenodd" clip-rule="evenodd" d="M255.732 120.116L160.64 247.031C159.443 248.63 158.942 250.434 159.005 252.177C139.292 257.121 118.112 257.428 97.0137 252.168C28.4622 235.073 -13.2694 165.616 3.83341 97.0493C20.9212 28.4696 90.3736 -13.2651 158.933 3.8302C214.468 17.6748 252.397 65.8659 255.732 120.116Z" fill="#F7931A"/>
<path d="M184.428 109.763C186.976 92.7291 174.007 83.5727 156.274 77.4645L162.026 54.3904L147.981 50.8905L142.38 73.3571C138.688 72.4361 134.896 71.5683 131.127 70.708L136.768 48.0932L122.731 44.5933L116.975 67.6599C113.919 66.9641 110.918 66.2766 108.006 65.552L108.022 65.4795L88.6525 60.6426L84.9161 75.6444C84.9161 75.6444 95.3369 78.0332 95.1173 78.1802C100.805 79.5998 101.834 83.365 101.663 86.3494L95.1098 112.636C95.5015 112.736 96.0095 112.88 96.5701 113.105C96.1015 112.988 95.6029 112.861 95.0854 112.737L85.9002 149.561C85.2051 151.29 83.4408 153.883 79.4641 152.898C79.6049 153.102 69.2554 150.35 69.2554 150.35L62.2819 166.428L80.5603 170.985C83.9607 171.838 87.2929 172.73 90.5745 173.569L84.7622 196.908L98.7918 200.408L104.548 177.317C108.381 178.357 112.1 179.317 115.741 180.222L110.005 203.204L124.051 206.704L129.863 183.409C153.814 187.942 171.824 186.114 179.404 164.45C185.512 147.008 179.1 136.948 166.499 130.387C175.677 128.271 182.59 122.234 184.433 109.765L184.429 109.762L184.428 109.763ZM152.336 154.764C147.996 172.206 118.629 162.777 109.108 160.413L116.821 129.493C126.341 131.87 156.873 136.574 152.337 154.764H152.336ZM156.68 109.51C152.721 125.376 128.278 117.315 120.349 115.339L127.342 87.2966C135.271 89.273 160.805 92.9619 156.682 109.51H156.68Z" fill="white"/>
</svg>
