<svg width="32" height="48" viewBox="0 0 32 48" fill="none" xmlns="http://www.w3.org/2000/svg">
<path fill-rule="evenodd" clip-rule="evenodd" d="M19.8015 7.29649C25.0888 7.86565 29.2348 9.6284 29.6942 14.8799C30.006 18.7084 28.5264 20.9864 26.0798 22.2704C30.0296 23.3457 32.4321 25.8742 31.9353 31.4837C31.3306 38.5146 26.5091 40.341 19.616 40.7267L19.6264 47.9854L15.5668 47.9913L15.5564 40.7326C15.1127 40.7256 14.6488 40.7328 14.173 40.7403C13.5373 40.7503 12.8803 40.7606 12.222 40.7375L12.2324 47.9962L8.18023 48.0021L8.16976 40.7434L0.0512167 40.5688L0.735642 35.2639C0.735642 35.2639 3.80186 35.3374 3.74501 35.299C4.87383 35.2924 5.2089 34.4192 5.29237 33.8458L5.27271 22.2099L5.30499 13.9282C5.18038 13.065 4.64196 12.0292 2.9824 11.9979C3.07279 11.9095 0.0100495 12.0022 0.0100495 12.0022L0 7.13892L8.31947 7.1268L8.30922 0.0167471L12.5005 0.0106356L12.5107 7.12068C13.3198 7.09619 14.118 7.10314 14.9251 7.11016H14.9251L14.9252 7.11017C15.1901 7.11247 15.4559 7.11479 15.7234 7.116L15.7131 0.00595101L19.7911 0L19.8015 7.29649ZM12.0118 20.6756L12.2176 20.6852C14.685 20.8026 22.0008 21.1506 22.0121 16.3116C22.0008 11.7175 15.7745 11.8657 12.8816 11.9346C12.5399 11.9427 12.2447 11.9497 12.0118 11.9477V20.6756ZM12.3573 34.9286C12.2277 34.9228 12.1083 34.9174 12.0001 34.9129L12.0001 26.1851C12.2579 26.1877 12.582 26.1833 12.9568 26.1782C16.3757 26.1317 24.0121 26.028 23.9759 30.6594C24.0144 35.4501 15.3948 35.0644 12.3573 34.9286Z" fill="white"/>
</svg>
