<svg width="44" height="44" viewBox="0 0 44 44" fill="none" xmlns="http://www.w3.org/2000/svg">
<circle cx="22" cy="22" r="22" fill="black"/>
<path fill-rule="evenodd" clip-rule="evenodd" d="M31.9565 19.599C32.3347 16.7891 30.2029 15.3222 27.2803 14.3305L28.188 10.5289L25.8774 9.97106L24.9972 13.69C24.3851 13.5454 23.7662 13.4008 23.1542 13.2768L24.0344 9.55784L21.6963 9L20.7886 12.8016C20.541 12.743 20.2917 12.6914 20.0424 12.6397L20.0424 12.6397C19.7931 12.5881 19.5438 12.5364 19.2963 12.4779L16.1123 11.7135L15.5278 14.1721C15.5278 14.1721 17.2539 14.5509 17.192 14.5853C18.1272 14.8195 18.306 15.4324 18.2716 15.9007L17.247 20.2326C17.2689 20.2423 17.2933 20.2486 17.3197 20.2554L17.3197 20.2554C17.368 20.2679 17.423 20.282 17.4808 20.3221C17.4361 20.3083 17.4 20.3015 17.3639 20.2946L17.3639 20.2946L17.3639 20.2946C17.3278 20.2877 17.2917 20.2808 17.247 20.267L15.8441 26.3275C15.7272 26.6168 15.4315 27.03 14.792 26.8854C14.8195 26.9129 13.0934 26.4721 13.0934 26.4721L12 29.1374L15.012 29.8399C15.2305 29.8966 15.4489 29.949 15.6652 30.001L15.6653 30.001L15.6654 30.0011C16.0007 30.0816 16.3311 30.161 16.6487 30.2531L15.741 34.0891L18.0516 34.6469L18.9593 30.8453C19.6057 31.0175 20.2178 31.169 20.8023 31.3137L19.8946 35.0877L22.2052 35.6455L23.1129 31.8095C27.0602 32.512 30.0104 32.1883 31.2069 28.5864C32.1697 25.7146 31.1175 24.0755 29.0132 22.9942C30.5536 22.643 31.6677 21.6444 31.9565 19.599ZM27.3973 19.599C26.8284 22.0185 23.3013 21.1065 21.7517 20.7059C21.634 20.6755 21.5278 20.648 21.4351 20.6251L22.5491 16.004C22.6871 16.038 22.8587 16.0748 23.0543 16.1167L23.0545 16.1167L23.0545 16.1167C24.6825 16.4654 27.9743 17.1706 27.3973 19.599ZM26.7577 27.0575C26.1348 29.7121 21.9453 28.6361 20.0876 28.1589L20.0868 28.1587L20.0857 28.1584C19.9344 28.1195 19.7986 28.0847 19.6815 28.0561L20.878 22.9598C21.046 23.0008 21.2525 23.0453 21.4866 23.0958C23.4572 23.5207 27.3847 24.3675 26.7577 27.0575Z" fill="white"/>
</svg>
