<svg width="128" height="128" viewBox="0 0 128 128" fill="none" xmlns="http://www.w3.org/2000/svg">
<path d="M59.931 58.8231C64.8757 58.9047 75.6668 59.0828 75.6668 51.5851L75.6499 51.5783C75.6499 43.9009 65.2636 44.1859 60.2076 44.3247C59.6457 44.3401 59.1496 44.3537 58.741 44.3544V58.809C59.0811 58.809 59.4819 58.8157 59.931 58.8231Z"/>
<path d="M60.1484 82.0519C66.0749 82.1352 79.0317 82.3171 79.0317 74.0694L79.0351 74.0626C79.0351 65.6216 66.5646 65.923 60.4947 66.0697C59.8218 66.086 59.2275 66.1004 58.7376 66.1007V82.0381C59.1417 82.0378 59.6167 82.0445 60.1484 82.0519Z" />
<path fill-rule="evenodd" clip-rule="evenodd" d="M63.9729 128C99.3175 128.017 127.986 99.375 128 64.0271V64C127.997 28.6521 99.3412 -0.00338454 63.9932 2.99837e-07C28.6588 0.0033858 0.0135455 28.6385 4.79911e-06 63.9729C-0.0135359 99.3209 28.6284 127.986 63.9729 128ZM71.5911 36.0742C80.9342 36.8934 88.3375 39.7675 89.1601 48.3421C90.1012 53.3454 87.5522 58.3554 82.9517 60.5355C89.8575 62.1942 94.1871 66.3004 93.334 75.5047C92.2778 86.933 83.7743 90 71.5877 90.6973V102.705H64.3604V90.8564C62.485 90.8564 60.5622 90.8395 58.5785 90.7989V102.701H51.3478V90.6736C50.7558 90.6689 50.16 90.6621 49.5606 90.6553C48.4461 90.6425 47.3188 90.6296 46.1786 90.6296H36.7577L38.1964 81.9839C38.1964 81.9839 43.5483 82.0652 43.4569 81.9839H43.4637C44.8719 82.0685 46.0804 80.9954 46.1651 79.5838V60.6032H46.9301C46.6762 60.5693 46.419 60.5524 46.1651 60.5524V47.0117C45.8807 44.9942 44.0223 43.5792 42.0013 43.8398C42.0893 43.7383 36.7441 43.8398 36.7441 43.8398V36.0979H46.7304V36.1352C48.2039 36.1352 49.7166 36.1058 51.2557 36.0758L51.3376 36.0742V24.1855H58.5717V35.8407C60.5047 35.8 62.4511 35.7628 64.3536 35.7628V24.1821H71.5911V36.0742Z" />
</svg>
