<svg width="32" height="30" viewBox="0 0 32 30" fill="none" xmlns="http://www.w3.org/2000/svg">
<path d="M30.9378 0.0483284C30.8171 0.0483284 28.1372 0.169043 24.8055 0.965748C20.2909 2.02799 16.9109 3.79046 14.8346 6.18054C14.3759 6.71168 13.9413 7.21866 13.555 7.70153C12.7342 7.91882 10.4648 8.5465 9.42668 8.73965C8.82311 8.86035 8.31611 9.1984 7.95402 9.7054C7.2056 10.7918 5.9019 13.0129 5.85366 13.1095L4.35679 15.6686L7.08492 14.4856C8.26795 13.9544 9.93376 13.5924 10.4166 13.882C10.4408 13.9062 10.4649 13.9062 10.489 14.051C10.489 14.8236 10.6822 15.572 11.0443 16.3204C10.2959 16.8999 9.88551 17.8173 9.93376 18.7588V22.0905H13.2654C14.207 22.1388 15.1002 21.7042 15.7038 20.98C16.4523 21.3421 17.2007 21.5111 17.9732 21.5352C18.094 21.5593 18.1181 21.5835 18.1181 21.6077C18.4078 22.0905 18.0456 23.7563 17.5145 24.9393L16.3315 27.6433L18.8906 26.1464C18.9872 26.0982 21.2083 24.7945 22.2948 24.0461C22.8018 23.708 23.1397 23.1769 23.2604 22.5733C23.4777 21.5352 24.0813 19.2658 24.2985 18.445C24.7814 18.0587 25.2884 17.6241 25.8195 17.1654C31.4206 12.2162 31.9276 1.49679 31.9517 1.03812L32 0L30.9378 0.0482849V0.0483284ZM10.8753 11.9992C10.2476 11.806 9.52334 11.8301 8.82319 11.9509C9.08879 11.5163 9.35431 11.1059 9.57158 10.792C9.61991 10.6954 9.71649 10.6472 9.83718 10.6231C10.3201 10.5265 11.0685 10.3333 11.8168 10.1643C11.3823 10.8162 11.0926 11.4197 10.8753 11.9992ZM14.1587 19.7489C13.9655 20.0145 13.6276 20.1594 13.3137 20.1352H12.9999L15.0036 16.9967L11.8652 19.0247V18.6866C11.841 18.3486 11.9859 18.0348 12.2515 17.8416L16.0901 14.7997C16.2832 14.6307 16.5488 14.51 16.7902 14.4617L17.8042 14.2203L17.5628 15.2343C17.4904 15.4998 17.3938 15.7413 17.2248 15.9344L14.1587 19.7489ZM21.3531 22.1873C21.329 22.2838 21.2808 22.3804 21.1842 22.4529C20.8703 22.6701 20.4599 22.9357 20.0253 23.2013C20.1461 22.5012 20.1702 21.7768 19.977 21.1491C20.5565 20.9319 21.1601 20.6422 21.8119 20.2317C21.6429 20.956 21.4497 21.6803 21.3531 22.1873ZM24.5399 15.7171C21.2083 18.6625 19.3735 19.5317 18.0456 19.5799H17.9974C17.587 19.5799 17.2489 19.5075 16.9109 19.3868L18.6975 17.1174C19.0355 16.6828 19.2769 16.2 19.4218 15.6688L20.3875 11.6129L16.3315 12.5786C15.8004 12.6993 15.2934 12.9407 14.883 13.2788L12.6136 15.0653C12.4929 14.7273 12.4204 14.3892 12.4204 13.9788V13.9306C12.4445 12.6269 13.3378 10.7679 16.2832 7.43618C19.8322 3.40441 27.1715 2.31796 29.9235 2.05244C29.6579 4.82882 28.5716 12.1678 24.5397 15.7173L24.5399 15.7171Z" fill="#10D078"/>
<path d="M9.53623 26.8605C8.30496 27.1019 7.04957 27.1743 5.79418 27.1985C5.06991 27.1985 4.34564 27.1743 3.59724 27.1019C3.88695 26.619 4.15252 26.1362 4.39395 25.6292C4.85265 24.591 5.19065 23.5529 5.45619 22.4907C5.69762 21.4767 5.98733 20.4868 6.34949 19.497C6.68748 18.5071 7.07377 17.5173 7.5083 16.5275C7.12203 16.9138 6.78403 17.3242 6.47018 17.7587C6.15634 18.1933 5.84248 18.652 5.55276 19.1107C4.99748 20.0281 4.51465 21.0421 4.10422 22.0319C3.71795 22.9977 3.30753 23.9633 2.82471 24.8325C2.34185 25.7016 1.78659 26.4983 1.11057 27.2709L0 28.5745L1.71414 28.816C3.06611 29.0092 4.44228 29.1058 5.81837 29.0574C6.5185 29.0333 7.19445 28.985 7.8946 28.8643C8.57063 28.7677 9.27069 28.5988 9.92259 28.4056C11.2504 28.0193 12.5299 27.3916 13.6646 26.5949C14.22 26.1845 14.7511 25.7258 15.1856 25.1946C15.6202 24.6635 16.0306 24.1082 16.2962 23.4805C15.3788 24.4462 14.2682 25.1463 13.1335 25.7016C11.9747 26.2569 10.7676 26.619 9.53629 26.8605H9.53623Z" fill="#10D078"/>
<path d="M23.8403 11.5406C24.7095 11.5406 25.5785 11.2026 26.2546 10.5507C27.5824 9.22289 27.5824 7.0742 26.2546 5.74636C25.6027 5.09451 24.7577 4.75648 23.8403 4.75648C22.9229 4.75648 22.0779 5.11862 21.426 5.74636C20.0982 7.0742 20.0982 9.22289 21.426 10.5507C22.0779 11.2026 22.947 11.5406 23.8403 11.5406ZM22.778 7.0984C23.0677 6.8087 23.4299 6.66384 23.8162 6.66384C24.2025 6.66384 24.5887 6.8087 24.8543 7.0984C25.4337 7.67782 25.4337 8.59519 24.8543 9.17464C24.2748 9.75401 23.3574 9.75401 22.778 9.17464C22.2227 8.61931 22.2227 7.67777 22.778 7.0984Z" fill="#10D078"/>
</svg>
