<svg width="38" height="38" viewBox="0 0 38 38" fill="none" xmlns="http://www.w3.org/2000/svg">
<mask id="mask0" style="mask-type:alpha" maskUnits="userSpaceOnUse" x="0" y="0" width="38" height="38">
<path d="M37.124 5.44855C36.2929 3.23219 34.5383 1.47757 32.3219 0.646438C30.2902 0 28.4433 0 24.5646 0H13.2058C9.41953 0 7.48021 0 5.44855 0.646438C3.23219 1.47757 1.47757 3.23219 0.646438 5.44855C0 7.48021 0 9.41953 0 13.2058V24.657C0 28.4433 0 30.3826 0.646438 32.4142C1.47757 34.6306 3.23219 36.3852 5.44855 37.2164C7.48021 37.8628 9.41953 37.8628 13.2058 37.8628H24.657C28.4433 37.8628 30.3826 37.8628 32.4142 37.2164C34.6306 36.3852 36.3852 34.6306 37.2164 32.4142C37.8628 30.3826 37.8628 28.4433 37.8628 24.657V13.2058C37.7704 9.41953 37.7704 7.48021 37.124 5.44855V5.44855Z" fill="white"/>
</mask>
<g mask="url(#mask0)">
<rect width="38" height="38" rx="8" fill="#EAF9FD"/>
<circle cx="31" cy="15" r="26" fill="#CAEEFE"/>
<circle cx="21" cy="8" r="26" fill="#AFE7FF" fill-opacity="0.5"/>
<circle cx="19" cy="10" r="2.25" stroke="#00B3E4" stroke-width="1.5"/>
<circle cx="19" cy="19" r="2.25" stroke="#00B3E4" stroke-width="1.5"/>
<circle cx="19" cy="28" r="2.25" stroke="#00B3E4" stroke-width="1.5"/>
</g>
</svg>
