<svg width="25" height="18" viewBox="0 0 25 18" fill="none" xmlns="http://www.w3.org/2000/svg">
<path d="M12.106 5.27C12.266 5.27 12.416 5.33 12.526 5.45C12.546 5.48 12.576 5.51 12.596 5.54L15.206 8.15L17.826 5.53C17.826 5.53 17.866 5.47 17.896 5.45C18.066 5.28 18.326 5.23 18.546 5.32C18.766 5.41 18.916 5.63 18.916 5.87C18.916 6.03 18.856 6.18 18.746 6.29L16.056 9L18.676 11.61C18.676 11.61 18.736 11.65 18.756 11.68C18.926 11.85 18.976 12.11 18.886 12.33C18.796 12.55 18.576 12.7 18.336 12.7C18.176 12.7 18.026 12.64 17.916 12.53L15.216 9.84L12.526 12.54H12.516C12.466 12.58 12.396 12.63 12.326 12.66C12.106 12.75 11.846 12.7 11.676 12.53C11.566 12.42 11.496 12.27 11.496 12.11C11.496 11.95 11.556 11.8 11.676 11.69C11.706 11.66 11.736 11.64 11.776 11.61L14.376 9.01L11.676 6.31C11.626 6.25 11.576 6.18 11.546 6.11C11.456 5.89 11.506 5.63 11.676 5.46C11.786 5.35 11.936 5.28 12.096 5.28L12.106 5.27ZM19.176 1.33H11.786C11.696 1.33 11.616 1.33 11.536 1.33C11.386 1.33 11.236 1.33 11.046 1.33C10.716 1.33 10.376 1.36 10.056 1.42C9.756 1.47 9.476 1.57 9.206 1.7C8.946 1.83 8.696 2.01 8.486 2.22C8.486 2.22 8.466 2.24 8.436 2.27C8.376 2.33 8.366 2.35 8.346 2.37C8.246 2.46 8.156 2.55 8.066 2.64C8.016 2.69 7.966 2.74 7.916 2.79L7.736 2.97L5.436 5.27C5.436 5.27 5.396 5.31 5.386 5.32C5.346 5.36 5.296 5.41 5.246 5.45L5.186 5.51C5.186 5.51 5.156 5.54 5.146 5.55L5.106 5.59L5.056 5.64L2.996 7.7C2.996 7.7 2.916 7.79 2.856 7.84C2.856 7.84 2.82933 7.86667 2.776 7.92C2.776 7.92 2.696 8 2.616 8.08C2.466 8.22 2.336 8.38 2.206 8.54L2.166 8.59C2.166 8.59 2.106 8.67 2.086 8.71C2.036 8.89 2.036 9.07 2.086 9.25C2.106 9.29 2.136 9.33 2.166 9.37L2.206 9.42C2.336 9.58 2.476 9.73 2.636 9.89C2.666 9.92 2.696 9.95 2.726 9.99L2.886 10.15C2.886 10.15 2.956 10.22 2.986 10.25L5.056 12.32L5.216 12.47C5.216 12.47 5.246 12.5 5.256 12.51C5.336 12.59 5.366 12.62 5.396 12.65C5.396 12.65 5.416 12.67 5.446 12.7L7.746 15.01C7.916 15.18 7.986 15.25 8.086 15.35C8.206 15.47 8.276 15.54 8.356 15.62C8.376 15.64 8.376 15.64 8.446 15.72C8.466 15.74 8.486 15.76 8.496 15.77C8.706 15.98 8.946 16.16 9.206 16.29C9.476 16.43 9.766 16.52 10.056 16.57C10.386 16.62 10.716 16.65 11.056 16.66C11.226 16.66 11.386 16.66 11.546 16.66H19.386C19.526 16.66 19.676 16.66 19.886 16.66C20.226 16.66 20.556 16.63 20.886 16.57C21.186 16.52 21.476 16.42 21.746 16.29C22.016 16.15 22.256 15.98 22.466 15.77C22.676 15.56 22.856 15.31 22.996 15.05C23.136 14.78 23.226 14.49 23.276 14.19C23.326 13.86 23.356 13.52 23.366 13.17C23.366 13.07 23.366 12.99 23.366 12.8C23.366 12.76 23.366 12.74 23.366 12.72V5.23C23.366 5.23 23.366 5.21 23.366 5.19C23.366 5.07 23.366 5.02 23.366 4.96C23.366 4.9 23.366 4.85 23.366 4.79C23.366 4.46 23.336 4.12 23.276 3.8C23.226 3.5 23.126 3.21 22.996 2.95C22.856 2.68 22.686 2.44 22.476 2.23C22.266 2.02 22.026 1.84 21.766 1.71C21.496 1.57 21.206 1.48 20.926 1.43C20.596 1.38 20.266 1.35 19.926 1.34C19.746 1.34 19.586 1.34 19.436 1.34C19.356 1.34 19.286 1.34 19.186 1.34L19.176 1.33ZM19.266 0H19.426C19.586 0 19.756 0 19.936 0C20.336 0 20.736 0.04 21.136 0.11C21.566 0.18 21.976 0.32 22.366 0.52C22.756 0.72 23.116 0.98 23.426 1.29C23.736 1.6 23.996 1.95 24.196 2.35C24.386 2.74 24.526 3.15 24.596 3.58C24.656 3.97 24.696 4.37 24.696 4.76C24.696 4.82 24.696 4.87 24.696 4.94C24.696 5.01 24.696 5.06 24.696 5.18C24.696 5.21333 24.696 5.25 24.696 5.29V12.69C24.696 12.73 24.696 12.77 24.696 12.81C24.696 13 24.696 13.09 24.696 13.19C24.696 13.59 24.656 14 24.586 14.4C24.516 14.83 24.376 15.25 24.176 15.64C23.976 16.03 23.716 16.39 23.406 16.7C23.096 17.01 22.736 17.27 22.336 17.47C21.946 17.67 21.526 17.8 21.096 17.88C20.696 17.95 20.296 17.98 19.896 17.99C19.686 17.99 19.526 17.99 19.376 17.99H11.526C11.356 17.99 11.186 17.99 11.016 17.99C10.616 17.99 10.216 17.95 9.816 17.88C9.386 17.81 8.976 17.67 8.586 17.47C8.196 17.27 7.836 17.01 7.546 16.72C7.526 16.7 7.506 16.68 7.456 16.63C7.326 16.5 7.246 16.42 7.116 16.3C7.076 16.26 7.046 16.23 7.006 16.19L6.776 15.96L4.496 13.68C4.426 13.61 4.386 13.57 4.316 13.51C4.276 13.47 4.246 13.44 4.206 13.4L4.086 13.28L2.016 11.2L1.976 11.16L1.876 11.05C1.876 11.05 1.856 11.03 1.836 11.01C1.766 10.94 1.706 10.88 1.676 10.84C1.506 10.67 1.336 10.49 1.186 10.3C1.046 10.15 0.926001 9.97 0.846001 9.78L0.826001 9.72C0.676001 9.26 0.676001 8.76 0.826001 8.29L0.846001 8.23C0.926001 8.04 1.046 7.86 1.186 7.71C1.336 7.52 1.506 7.34 1.666 7.18C1.736 7.11 1.786 7.05 1.846 6.99L1.876 6.96C1.876 6.96 1.886 6.95 1.896 6.94C1.946 6.89 1.986 6.85 2.026 6.81L4.096 4.74L4.146 4.69C4.146 4.69 4.166 4.67 4.186 4.65C4.236 4.6 4.266 4.57 4.296 4.54C4.356 4.48 4.416 4.42 4.486 4.35L4.506 4.33C4.506 4.33 4.536 4.3 4.556 4.28L4.636 4.2C4.636 4.2 4.666 4.17 4.686 4.15L4.816 4.02C4.816 4.02 4.866 3.97 4.896 3.94L5.516 3.32C5.686 3.15 5.876 2.96 6.086 2.75L6.786 2.05C6.886 1.95 6.976 1.86 7.056 1.79L7.126 1.72C7.226 1.62 7.326 1.53 7.426 1.42C7.516 1.33 7.526 1.32 7.536 1.3C7.846 0.99 8.196 0.73 8.596 0.53C8.986 0.34 9.396 0.2 9.826 0.12C10.216 0.06 10.616 0.02 11.006 0.02C11.196 0.02 11.366 0.02 11.516 0.02C11.576 0.02 11.626 0.02 11.686 0.02H19.256L19.266 0Z" />
</svg>
