<svg width="52" height="52" viewBox="0 0 52 52" fill="none" xmlns="http://www.w3.org/2000/svg">
<path fill-rule="evenodd" clip-rule="evenodd" d="M2.64062 14.2695V8.42969C2.64062 5.23758 5.23763 2.64062 8.42969 2.64062H14.2695C14.9987 2.64062 15.5898 2.04948 15.5898 1.32031C15.5898 0.591144 14.9987 0 14.2695 0H8.42969C3.78158 0 0 3.78153 0 8.42969V14.2695C0 14.9987 0.591144 15.5898 1.32031 15.5898C2.04948 15.5898 2.64062 14.9987 2.64062 14.2695ZM14.2695 49.3592C14.9987 49.3592 15.5898 49.9504 15.5898 50.6795C15.5898 51.4087 14.9987 51.9999 14.2695 51.9999H8.42969C3.78158 51.9999 0 48.2183 0 43.5702V37.7303C0 37.0012 0.591144 36.41 1.32031 36.41C2.04948 36.41 2.64062 37.0012 2.64062 37.7303V43.5702C2.64062 46.7622 5.23763 49.3592 8.42969 49.3592H14.2695ZM51.9999 37.7303V43.5702C51.9999 48.2183 48.2183 51.9999 43.5702 51.9999H37.7303C37.0012 51.9999 36.41 51.4087 36.41 50.6795C36.41 49.9504 37.0012 49.3592 37.7303 49.3592H43.5702C46.7622 49.3592 49.3592 46.7622 49.3592 43.5702V37.7303C49.3592 37.0012 49.9504 36.41 50.6795 36.41C51.4087 36.41 51.9999 37.0012 51.9999 37.7303ZM51.9999 8.42969V14.2695C51.9999 14.9987 51.4087 15.5898 50.6795 15.5898C49.9504 15.5898 49.3592 14.9987 49.3592 14.2695V8.42969C49.3592 5.23758 46.7622 2.64062 43.5702 2.64062H37.7303C37.0012 2.64062 36.41 2.04948 36.41 1.32031C36.41 0.591144 37.0012 0 37.7303 0H43.5702C48.2183 0 51.9999 3.78153 51.9999 8.42969ZM35.1114 38.4329C35.6676 37.9191 35.702 37.0517 35.1882 36.4954C34.6744 35.9392 33.807 35.9048 33.2507 36.4185C31.2714 38.2469 28.6963 39.2538 25.9998 39.2538C23.3032 39.2538 20.7281 38.2469 18.7488 36.4185C18.1925 35.9048 17.3252 35.9392 16.8113 36.4954C16.2975 37.0517 16.3319 37.9191 16.8881 38.4329C19.3757 40.7306 22.6115 41.9959 25.9998 41.9959C29.388 41.9959 32.6239 40.7306 35.1114 38.4329ZM28.7423 19.6017V29.3517C28.7423 31.2838 27.1705 32.8556 25.2384 32.8556H24.1212C23.364 32.8556 22.7501 32.2418 22.7501 31.4845C22.7501 30.7273 23.364 30.1134 24.1212 30.1134H25.2384C25.6584 30.1134 26.0001 29.7717 26.0001 29.3517V19.6017C26.0001 18.8445 26.614 18.2306 27.3712 18.2306C28.1285 18.2306 28.7423 18.8445 28.7423 19.6017ZM38.1874 23.4357V19.5255C38.1874 18.8104 37.6076 18.2306 36.8925 18.2306C36.1773 18.2306 35.5975 18.8104 35.5975 19.5255V23.4357C35.5975 24.1509 36.1773 24.7306 36.8925 24.7306C37.6076 24.7306 38.1874 24.1509 38.1874 23.4357ZM14.1174 23.4357C14.1174 24.1509 14.6971 24.7306 15.4123 24.7306C16.1274 24.7306 16.7072 24.1509 16.7072 23.4357V19.5255C16.7072 18.8104 16.1274 18.2306 15.4123 18.2306C14.6971 18.2306 14.1174 18.8104 14.1174 19.5255V23.4357Z" fill="black"/>
</svg>
