<svg width="24" height="24" viewBox="0 0 24 24" fill="none" xmlns="http://www.w3.org/2000/svg">
<path d="M9.13472 20.7734V17.7156C9.13472 16.9351 9.77211 16.3023 10.5584 16.3023H13.4325C13.8101 16.3023 14.1722 16.4512 14.4392 16.7163C14.7062 16.9813 14.8562 17.3408 14.8562 17.7156V20.7734C14.8538 21.0979 14.982 21.4099 15.2123 21.6402C15.4426 21.8705 15.756 22 16.0829 22H18.0438C18.9596 22.0024 19.8387 21.6429 20.4871 21.0008C21.1355 20.3588 21.4999 19.487 21.4999 18.5778V9.86687C21.4999 9.13248 21.172 8.43586 20.6046 7.96468L13.934 2.67588C12.7736 1.74858 11.1111 1.77852 9.98533 2.74699L3.46695 7.96468C2.87268 8.42197 2.51749 9.12065 2.49994 9.86687V18.569C2.49994 20.4639 4.04732 22 5.95611 22L7.87223 22C8.55117 22 9.10294 21.4562 9.10786 20.7822L9.13472 20.7734Z" fill="#000"/>
</svg>
