<svg width="12" height="20" viewBox="0 0 12 20" fill="none" xmlns="http://www.w3.org/2000/svg">
<path d="M4.12067 10.0005C4.12067 8.05138 3.17478 6.21045 1.59042 5.07607C1.13845 4.75242 0.510329 4.85737 0.18749 5.31034C0.0609179 5.48794 3.72917e-06 5.69264 3.70637e-06 5.89544C3.67102e-06 6.20996 0.146481 6.51983 0.421221 6.7165C1.47824 7.47334 2.10925 8.70097 2.10925 10.0004C2.10925 11.3 1.47824 12.5276 0.421275 13.2843C-0.0305902 13.6078 -0.135459 14.2374 0.187434 14.6905C0.510273 15.1435 1.13839 15.2485 1.59036 14.9249C3.17484 13.7906 4.12067 11.9497 4.12067 10.0005Z" />
<path d="M7.89673 10.0002C7.89673 7.21586 6.71068 4.5508 4.64271 2.68817C4.22957 2.3161 3.59371 2.35009 3.22244 2.76426C3.04979 2.95683 2.96477 3.19767 2.96477 3.43769C2.96483 3.71378 3.07727 3.98878 3.2983 4.1878C4.94237 5.66862 5.88531 7.78718 5.88531 10.0002C5.88531 12.2133 4.94237 14.3319 3.29835 15.8128C2.8852 16.1849 2.85129 16.8223 3.22249 17.2363C3.59376 17.6504 4.22962 17.6844 4.64271 17.3124C6.71073 15.4496 7.89673 12.7845 7.89673 10.0002Z" />
<path d="M7.59931 19.7114C10.2219 17.1309 11.6663 13.682 11.6663 10C11.6663 6.31819 10.2219 2.86929 7.5992 0.288688C7.2028 -0.101319 6.56612 -0.0954155 6.17702 0.301861C5.98485 0.498095 5.88898 0.753089 5.88903 1.00797C5.88903 1.26903 5.98965 1.53004 6.19017 1.72737C8.42446 3.92584 9.6549 6.86376 9.6549 10C9.6549 13.1364 8.42446 16.0743 6.19027 18.2726C5.79387 18.6626 5.78803 19.3009 6.17708 19.6981C6.56617 20.0954 7.20291 20.1013 7.59931 19.7114Z" />
</svg>
