<svg width="32" height="32" viewBox="0 0 32 32" fill="none" xmlns="http://www.w3.org/2000/svg">
<path fill-rule="evenodd" clip-rule="evenodd" d="M15.6666 6C16.2188 6 16.6666 6.44772 16.6666 7V14.6667H24.3333C24.8856 14.6667 25.3333 15.1144 25.3333 15.6667C25.3333 16.219 24.8856 16.6667 24.3333 16.6667H16.6666V24.3333C16.6666 24.8856 16.2188 25.3333 15.6666 25.3333C15.1143 25.3333 14.6666 24.8856 14.6666 24.3333V16.6667H7C6.44772 16.6667 6 16.219 6 15.6667C6 15.1144 6.44772 14.6667 7 14.6667H14.6666V7C14.6666 6.44772 15.1143 6 15.6666 6Z" fill="#24292E"/>
</svg>
