<svg width="128" height="98" viewBox="0 0 128 98" fill="none" xmlns="http://www.w3.org/2000/svg">
<path fill-rule="evenodd" clip-rule="evenodd" d="M39.863 0H9C4.02944 0 0 4.02944 0 9V33.6842H61.979V22.116L39.863 0ZM63.129 19.4551L82.584 0H43.6739L63.129 19.4551ZM64.6737 33.6842L64.6737 21.7213L86.395 0H119C123.971 0 128 4.02944 128 9V33.6842H75.4527V36.3789V61.9789H51.2V36.3789L64.6737 36.3789L64.6737 35.0316L64.6737 33.6842ZM48.5053 61.9789V36.3789L0 36.3789V61.9789H48.5053ZM128 61.9789H78.1474V36.3789H128V61.9789ZM0 88.0105V64.6737H61.979V76.4842L41.4527 97.0105H9C4.02944 97.0105 0 92.9811 0 88.0105ZM63.4475 78.8266L45.2636 97.0105H81.6314L63.4475 78.8266ZM85.4423 97.0105H119C123.971 97.0105 128 92.9811 128 88.0105V64.6737H64.6737V76.2419L85.4423 97.0105Z" fill-opacity="0.8"/>
</svg>
