<svg width="52" height="52" viewBox="0 0 52 52" fill="none" xmlns="http://www.w3.org/2000/svg">
<g clip-path="url(#clip0)">
<path d="M31.3913 0.76651C27.7486 -0.142116 23.9156 -0.271954 20.1858 0.533222C19.8976 0.595448 19.7144 0.879559 19.7766 1.1678C19.8388 1.45604 20.1229 1.63927 20.4112 1.57704C23.9831 0.805946 27.6625 0.933088 31.1623 1.81027C39.5319 3.90799 46.4986 10.2008 49.152 18.4208C50.1781 21.5998 50.6141 24.9848 50.7013 28.5323C50.7086 28.8271 50.9534 29.0602 51.2482 29.0529C51.543 29.0457 51.7761 28.8008 51.7689 28.506C51.6804 24.9098 51.2394 21.4378 50.1879 18.1539C47.4323 9.54808 40.151 2.95153 31.3913 0.76651Z" fill="black"/>
<path d="M17.4762 2.38195C17.7605 2.30353 17.9274 2.00952 17.849 1.72525C17.7705 1.44099 17.4765 1.27412 17.1923 1.35254C13.2917 2.42859 7.80479 6.14672 4.41382 11.1138C4.4125 11.1158 4.41119 11.1177 4.40989 11.1197C1.4324 15.6068 -0.434073 21.2456 0.0870397 26.7173C0.0875359 26.7225 0.0881086 26.7277 0.0887577 26.7329C0.213647 27.732 0.423307 28.7293 0.633213 29.7277C1.07531 31.8306 1.51851 33.9386 1.17306 36.0802C1.1261 36.3713 1.32403 36.6454 1.61515 36.6923C1.90627 36.7393 2.18034 36.5413 2.2273 36.2502C2.5884 34.0116 2.14003 31.8281 1.69156 29.6441C1.48416 28.6341 1.27673 27.6239 1.14935 26.6082C0.659234 21.4379 2.42461 16.0441 5.29774 11.713C8.55972 6.93655 13.8419 3.38457 17.4762 2.38195Z" fill="black"/>
<path d="M24.4828 3.57488C31.1863 3.16553 37.8885 5.90131 42.3895 11.1426C42.5816 11.3663 42.556 11.7034 42.3323 11.8955C42.1086 12.0876 41.7715 12.062 41.5794 11.8383C37.2991 6.85405 30.9214 4.25054 24.5447 4.64096C24.5424 4.6411 24.5401 4.64122 24.5379 4.64133C16.4737 5.03153 8.92161 10.5021 6.14379 18.1678C6.04333 18.445 5.73713 18.5883 5.45989 18.4879C5.18265 18.3874 5.03935 18.0812 5.13981 17.804C8.06614 9.72849 15.9963 3.98695 24.4828 3.57488Z" fill="black"/>
<path d="M44.0162 13.4752C43.8518 13.2304 43.52 13.1652 43.2752 13.3296C43.0304 13.494 42.9653 13.8257 43.1297 14.0705C45.6249 17.786 46.6566 21.8291 47.0645 26.627C47.0895 26.9208 47.3479 27.1388 47.6417 27.1138C47.9355 27.0888 48.1535 26.8304 48.1285 26.5366C47.7117 21.6337 46.6478 17.3937 44.0162 13.4752Z" fill="black"/>
<path d="M47.7715 28.8034C48.0659 28.785 48.3194 29.0087 48.3377 29.303C48.539 32.5226 48.5408 36.1653 48.1847 38.8572C48.146 39.1496 47.8777 39.3552 47.5853 39.3165C47.293 39.2779 47.0874 39.0095 47.126 38.7172C47.4693 36.1226 47.4712 32.5572 47.272 29.3696C47.2536 29.0753 47.4772 28.8218 47.7715 28.8034Z" fill="black"/>
<path d="M5.3375 20.7539C5.40671 20.4672 5.23044 20.1788 4.94379 20.1096C4.65715 20.0403 4.36867 20.2166 4.29946 20.5033C3.90756 22.1264 3.70412 23.7938 3.69606 25.4627C3.68775 27.1829 4.0085 28.862 4.32937 30.5418C4.59185 31.9159 4.85442 33.2904 4.93701 34.6882C5.0455 36.5244 4.65928 38.3632 3.99189 40.1133C3.88682 40.3889 4.025 40.6974 4.30053 40.8025C4.57606 40.9075 4.8846 40.7694 4.98967 40.4938C5.69511 38.6439 6.12272 36.6512 6.00301 34.6252C5.92099 33.237 5.65844 31.8705 5.396 30.5045C5.07577 28.8376 4.75568 27.1716 4.76391 25.4679C4.77157 23.8821 4.96492 22.297 5.3375 20.7539Z" fill="black"/>
<path d="M19.3477 8.88877C19.4576 9.16241 19.3248 9.47333 19.0512 9.58322C13.5158 11.8062 9.35905 16.8225 8.51106 22.7379C8.15678 25.2093 8.53954 27.6574 8.92219 30.1047C9.13768 31.483 9.35314 32.861 9.43691 34.2429C9.61856 37.2393 9.27725 40.5307 7.32715 43.5253C7.16624 43.7724 6.83547 43.8423 6.58836 43.6814C6.34126 43.5204 6.27138 43.1897 6.4323 42.9426C8.20904 40.2142 8.54535 37.1836 8.37101 34.3075C8.28601 32.9054 8.07189 31.5114 7.85791 30.1183C7.47399 27.6188 7.09051 25.1221 7.454 22.5864C8.35943 16.2703 12.7864 10.9483 18.6533 8.59227C18.9269 8.48238 19.2378 8.61513 19.3477 8.88877Z" fill="black"/>
<path d="M38.0919 11.9286C33.725 7.83852 27.3957 6.411 21.6435 7.67268C21.3555 7.73585 21.1732 8.02057 21.2364 8.3086C21.2995 8.59664 21.5842 8.77892 21.8723 8.71575C27.3192 7.52103 33.279 8.88388 37.3619 12.708C40.8033 15.9312 42.8016 20.6213 43.3247 25.7383C43.3547 26.0316 43.6168 26.2451 43.9102 26.2151C44.2035 26.1852 44.417 25.923 44.3871 25.6297C43.8439 20.3163 41.7611 15.3653 38.0919 11.9286Z" fill="black"/>
<path d="M44.2753 28.1725C44.5687 28.1424 44.8309 28.3557 44.861 28.6491C45.3681 33.5863 45.1496 38.919 44.384 44.0778C44.3408 44.3695 44.0692 44.5709 43.7775 44.5276C43.4858 44.4843 43.2845 44.2128 43.3277 43.9211C44.0826 38.834 44.2952 33.5919 43.7987 28.7582C43.7686 28.4648 43.982 28.2026 44.2753 28.1725Z" fill="black"/>
<path d="M25.6604 10.8512C17.4785 10.8512 10.8307 17.3787 10.8307 25.449C10.8307 26.3111 10.9072 27.1558 11.053 27.9771C11.1046 28.2675 11.3817 28.461 11.6721 28.4095C11.9624 28.3579 12.156 28.0808 12.1044 27.7904C11.9694 27.03 11.8986 26.2478 11.8986 25.449C11.8986 17.9849 18.0518 11.9191 25.6604 11.9191C29.0988 11.9191 32.2403 13.1583 34.6515 15.2061C34.8763 15.3969 35.2132 15.3695 35.4041 15.1447C35.595 14.9199 35.5675 14.583 35.3428 14.3921C32.7444 12.1855 29.3596 10.8512 25.6604 10.8512Z" fill="black"/>
<path d="M36.5391 16.3829C36.7519 16.1788 37.0899 16.1858 37.294 16.3987C39.6503 18.8559 40.4046 22.7179 40.9037 25.9589C41.4659 29.6096 41.5517 33.1712 41.5517 34.8225C41.5517 35.1174 41.3126 35.3564 41.0178 35.3564C40.7229 35.3564 40.4838 35.1174 40.4838 34.8225C40.4838 33.1979 40.3988 29.6966 39.8483 26.1214C39.3849 23.1125 38.717 19.4254 36.5233 17.1378C36.3191 16.925 36.3262 16.587 36.5391 16.3829Z" fill="black"/>
<path d="M41.4161 37.8803C41.4396 37.5864 41.2203 37.3291 40.9263 37.3056C40.6324 37.2822 40.3751 37.5015 40.3516 37.7954C40.0894 41.0844 39.7468 44.3697 39.0516 47.4045C38.9857 47.6919 39.1654 47.9783 39.4528 48.0441C39.7402 48.11 40.0266 47.9303 40.0925 47.6429C40.806 44.5281 41.1532 41.178 41.4161 37.8803Z" fill="black"/>
<path d="M11.9125 29.9423C12.2018 29.8853 12.4825 30.0737 12.5395 30.363C13.6684 36.0959 12.8885 41.3038 9.89892 45.8657C9.73729 46.1124 9.40632 46.1813 9.15968 46.0197C8.91304 45.858 8.84413 45.5271 9.00576 45.2804C11.8187 40.9881 12.5757 36.0738 11.4917 30.5693C11.4348 30.28 11.6231 29.9992 11.9125 29.9423Z" fill="black"/>
<path d="M25.6604 14.3252C20.3493 14.3252 15.139 18.4365 14.6072 23.6034C14.3744 25.8655 14.7014 28.0937 15.0286 30.3228C15.3143 32.2692 15.6001 34.2163 15.5134 36.1872C15.3148 40.698 13.9913 44.4215 11.7172 47.4882C11.5415 47.7251 11.5911 48.0595 11.828 48.2352C12.0649 48.4108 12.3993 48.3612 12.5749 48.1243C14.9869 44.8716 16.3731 40.9386 16.5802 36.2342C16.6666 34.2722 16.3799 32.3313 16.0934 30.3916C15.7658 28.1736 15.4384 25.9572 15.6695 23.7128C16.1366 19.1736 20.8087 15.3931 25.6604 15.3931C27.9233 15.3931 33.7781 16.6184 35.6406 22.6854C36.8077 26.4873 37.126 31.6327 36.8433 36.6315C36.5607 41.6296 35.6814 46.41 34.499 49.4754C34.3929 49.7505 34.5299 50.0596 34.805 50.1657C35.0801 50.2718 35.3892 50.1348 35.4953 49.8597C36.7323 46.6526 37.6233 41.7512 37.9095 36.6918C38.1955 31.633 37.8811 26.3452 36.6614 22.372C34.5941 15.6374 28.1135 14.3252 25.6604 14.3252Z" fill="black"/>
<path d="M17.4436 45.8666C17.6906 46.0277 17.7602 46.3585 17.5991 46.6055C17.268 47.1131 16.9768 47.6442 16.6855 48.1754C16.3942 48.7066 16.1029 49.2378 15.7718 49.7455C15.6107 49.9925 15.2798 50.0622 15.0328 49.9011C14.7859 49.74 14.7162 49.4091 14.8773 49.1622C15.2084 48.6545 15.4997 48.1234 15.7909 47.5922C16.0822 47.0611 16.3736 46.5298 16.7047 46.0221C16.8658 45.7751 17.1966 45.7055 17.4436 45.8666Z" fill="black"/>
<path d="M22.0155 19.8677C22.2606 19.7037 22.3264 19.3721 22.1625 19.127C21.9985 18.8819 21.6669 18.8161 21.4218 18.9801C19.3075 20.3942 18.0104 22.3389 18.0104 25.1877C18.0104 26.884 18.3109 28.2706 18.6191 29.6927C19.0803 31.8208 19.3932 33.9444 19.3369 36.1302C19.2687 38.7846 18.7493 41.2101 17.751 43.5207C17.634 43.7914 17.7587 44.1057 18.0294 44.2226C18.3001 44.3396 18.6143 44.215 18.7313 43.9443C19.7868 41.5012 20.3329 38.9403 20.4044 36.1577C20.4629 33.8863 20.1414 31.6787 19.663 29.4669C19.354 28.0386 19.0782 26.7633 19.0782 25.1877C19.0782 22.7468 20.152 21.1141 22.0155 19.8677Z" fill="black"/>
<path d="M24.0994 17.9917C26.3151 17.54 28.6993 18.0981 30.4543 19.5186C33.5889 22.0557 34.0058 26.6827 34.3436 30.4321L34.3609 30.6231C34.7974 35.4562 34.2977 40.1507 33.2911 44.8651C33.2295 45.1535 32.9458 45.3374 32.6574 45.2758C32.369 45.2142 32.1852 44.9305 32.2467 44.6422C33.2383 39.9984 33.7215 35.4157 33.2973 30.7192C33.2833 30.5637 33.2693 30.406 33.2552 30.2464L33.255 30.2441C32.9549 26.8559 32.5791 22.6122 29.7824 20.3486C28.282 19.1342 26.2243 18.6483 24.3128 19.038C24.0238 19.0969 23.7418 18.9105 23.6829 18.6215C23.624 18.3326 23.8105 18.0506 24.0994 17.9917Z" fill="black"/>
<path d="M32.5364 47.5219C32.6092 47.2362 32.4365 46.9455 32.1507 46.8728C31.865 46.8 31.5743 46.9727 31.5016 47.2585C31.1788 48.5264 30.6814 49.6708 30.0508 50.7244C29.8993 50.9775 29.9817 51.3053 30.2347 51.4568C30.4877 51.6082 30.8156 51.5259 30.9671 51.2729C31.6467 50.1374 32.1862 48.8976 32.5364 47.5219Z" fill="black"/>
<path d="M29.9255 39.7736C30.2183 39.8083 30.4276 40.0738 30.393 40.3666C29.8887 44.6279 28.7502 48.4285 26.9235 51.7248C26.7806 51.9827 26.4556 52.0759 26.1977 51.933C25.9398 51.7901 25.8465 51.4651 25.9895 51.2072C27.7377 48.0525 28.8415 44.39 29.3325 40.2411C29.3671 39.9483 29.6326 39.739 29.9255 39.7736Z" fill="black"/>
<path d="M29.8154 24.9077C29.4453 22.9298 27.7477 21.4168 25.6868 21.4168C22.8962 21.4168 20.9382 24.2297 21.6282 26.8468C22.7956 31.4664 22.9873 35.9188 22.197 40.2069L22.1964 40.2101C21.5105 44.0602 20.1935 47.5238 18.397 50.4588C18.243 50.7103 18.3221 51.039 18.5736 51.1929C18.8251 51.3469 19.1538 51.2678 19.3078 51.0163C21.1778 47.9613 22.5396 44.3713 23.2474 40.3989C24.068 35.9453 23.8647 31.3368 22.6628 26.5824L22.6613 26.5768C22.1438 24.6191 23.5864 22.4846 25.6868 22.4846C27.2026 22.4846 28.4825 23.5998 28.7651 25.1005C29.5423 29.6084 29.9471 33.7888 29.6589 37.388C29.6353 37.6819 29.8545 37.9393 30.1485 37.9628C30.4424 37.9864 30.6998 37.7672 30.7233 37.4732C31.0221 33.7426 30.6004 29.4593 29.8168 24.9151C29.8164 24.9126 29.8159 24.9101 29.8154 24.9077Z" fill="black"/>
<path d="M24.0936 48.0327C24.3559 48.1675 24.4592 48.4893 24.3245 48.7516L22.9097 51.5048C22.7749 51.7671 22.453 51.8705 22.1908 51.7357C21.9285 51.6009 21.8251 51.2791 21.9599 51.0168L23.3747 48.2635C23.5094 48.0013 23.8313 47.8979 24.0936 48.0327Z" fill="black"/>
<path d="M26.0839 25.4225C26.0165 25.1354 25.7291 24.9574 25.4421 25.0248C25.155 25.0923 24.9769 25.3797 25.0444 25.6667C26.8449 33.3313 26.5976 40.0616 24.4045 45.7949C24.2991 46.0703 24.437 46.379 24.7124 46.4844C24.9878 46.5897 25.2965 46.4519 25.4018 46.1764C27.6886 40.1985 27.9211 33.2427 26.0839 25.4225Z" fill="black"/>
</g>
<defs>
<clipPath id="clip0">
<rect width="52" height="52" fill="white"/>
</clipPath>
</defs>
</svg>
