<svg width="24" height="24" viewBox="0 0 24 24" xmlns="http://www.w3.org/2000/svg">
<path fill-rule="evenodd" clip-rule="evenodd" d="M1.08289 12C1.09393 12.0178 1.10559 12.0364 1.11786 12.0559C1.24196 12.253 1.42863 12.5371 1.67565 12.8791C2.17028 13.564 2.90377 14.4769 3.8579 15.3885C5.77201 17.2172 8.5294 19 12 19C15.4706 19 18.228 17.2172 20.1421 15.3885C21.0962 14.4769 21.8297 13.564 22.3243 12.8791C22.5714 12.5371 22.758 12.253 22.8821 12.0559C22.8944 12.0364 22.9061 12.0178 22.9171 12C22.9061 11.9822 22.8944 11.9636 22.8821 11.9441C22.758 11.747 22.5714 11.4629 22.3243 11.1209C21.8297 10.436 21.0962 9.52311 20.1421 8.61152C18.228 6.78275 15.4706 5 12 5C8.5294 5 5.77201 6.78275 3.8579 8.61152C2.90377 9.52311 2.17028 10.436 1.67565 11.1209C1.42863 11.4629 1.24196 11.747 1.11786 11.9441C1.10559 11.9636 1.09393 11.9822 1.08289 12ZM23.5 12C23.9363 11.7557 23.9361 11.7555 23.936 11.7553L23.9348 11.7531L23.9317 11.7477L23.9211 11.729C23.9119 11.7131 23.8986 11.6902 23.8812 11.6609C23.8465 11.6023 23.7955 11.5179 23.7284 11.4114C23.5943 11.1983 23.3958 10.8965 23.135 10.5354C22.614 9.81399 21.8413 8.85189 20.8329 7.88848C18.822 5.96725 15.8294 4 12 4C8.1706 4 5.17799 5.96725 3.1671 7.88848C2.15873 8.85189 1.38597 9.81399 0.864973 10.5354C0.604185 10.8965 0.405697 11.1983 0.27159 11.4114C0.204517 11.5179 0.153492 11.6023 0.118776 11.6609C0.101417 11.6902 0.0881301 11.7131 0.0789489 11.729L0.0682584 11.7477L0.0652289 11.7531L0.0642943 11.7547C0.0641736 11.7549 0.063747 11.7557 0.5 12L0.063747 11.7557C-0.021249 11.9075 -0.021249 12.0925 0.063747 12.2443L0.5 12C0.063747 12.2443 0.0636263 12.2441 0.063747 12.2443L0.0642943 12.2453L0.0652289 12.2469L0.0682584 12.2523L0.0789489 12.271C0.0881301 12.2869 0.101417 12.3098 0.118776 12.3391C0.153492 12.3977 0.204517 12.4821 0.27159 12.5886C0.405697 12.8017 0.604185 13.1035 0.864973 13.4646C1.38597 14.186 2.15873 15.1481 3.1671 16.1115C5.17799 18.0328 8.1706 20 12 20C15.8294 20 18.822 18.0328 20.8329 16.1115C21.8413 15.1481 22.614 14.186 23.135 13.4646C23.3958 13.1035 23.5943 12.8017 23.7284 12.5886C23.7955 12.4821 23.8465 12.3977 23.8812 12.3391C23.8986 12.3098 23.9119 12.2869 23.9211 12.271L23.9317 12.2523L23.9348 12.2469L23.9357 12.2453C23.9358 12.2451 23.9363 12.2443 23.5 12ZM23.5 12L23.9363 12.2443C24.0212 12.0925 24.021 11.9071 23.936 11.7553L23.5 12Z"/>
<path fill-rule="evenodd" clip-rule="evenodd" d="M12 10C10.8954 10 10 10.8954 10 12C10 13.1046 10.8954 14 12 14C13.1046 14 14 13.1046 14 12C14 10.8954 13.1046 10 12 10ZM9 12C9 10.3431 10.3431 9 12 9C13.6569 9 15 10.3431 15 12C15 13.6569 13.6569 15 12 15C10.3431 15 9 13.6569 9 12Z"/>
</svg>
