<svg width="86" height="37" viewBox="0 0 86 37" fill="none" xmlns="http://www.w3.org/2000/svg">
<path d="M29 2.39062L17.9609 36H11.2344L0.242188 2.39062H7.88281L14.5859 24.8203L21.3125 2.39062H29ZM53.6562 23.2266C53.6562 25.1016 53.3203 26.8516 52.6484 28.4766C51.9766 30.0859 51.0625 31.4844 49.9062 32.6719C48.75 33.8438 47.3906 34.7734 45.8281 35.4609C44.2812 36.1328 42.6172 36.4688 40.8359 36.4688C39.0703 36.4688 37.4062 36.1328 35.8438 35.4609C34.2969 34.7734 32.9375 33.8438 31.7656 32.6719C30.6094 31.4844 29.6953 30.0859 29.0234 28.4766C28.3516 26.8516 28.0156 25.1016 28.0156 23.2266C28.0156 21.3203 28.3516 19.5547 29.0234 17.9297C29.6953 16.3047 30.6094 14.9062 31.7656 13.7344C32.9375 12.5469 34.2969 11.6172 35.8438 10.9453C37.4062 10.2734 39.0703 9.9375 40.8359 9.9375C42.6172 9.9375 44.2812 10.2578 45.8281 10.8984C47.3906 11.5234 48.75 12.4219 49.9062 13.5938C51.0625 14.75 51.9766 16.1484 52.6484 17.7891C53.3203 19.4141 53.6562 21.2266 53.6562 23.2266ZM47.2109 23.2266C47.2109 22.1953 47.0391 21.2656 46.6953 20.4375C46.3672 19.5938 45.9141 18.875 45.3359 18.2812C44.7578 17.6719 44.0781 17.2109 43.2969 16.8984C42.5312 16.5703 41.7109 16.4062 40.8359 16.4062C39.9609 16.4062 39.1328 16.5703 38.3516 16.8984C37.5859 17.2109 36.9141 17.6719 36.3359 18.2812C35.7734 18.875 35.3281 19.5938 35 20.4375C34.6719 21.2656 34.5078 22.1953 34.5078 23.2266C34.5078 24.1953 34.6719 25.0938 35 25.9219C35.3281 26.75 35.7734 27.4688 36.3359 28.0781C36.9141 28.6875 37.5859 29.1719 38.3516 29.5312C39.1328 29.875 39.9609 30.0469 40.8359 30.0469C41.7109 30.0469 42.5312 29.8828 43.2969 29.5547C44.0781 29.2266 44.7578 28.7656 45.3359 28.1719C45.9141 27.5781 46.3672 26.8594 46.6953 26.0156C47.0391 25.1719 47.2109 24.2422 47.2109 23.2266ZM63.6406 36H57.1953V0.914062H63.6406V36ZM81.125 36C79.5781 36 78.125 35.7109 76.7656 35.1328C75.4062 34.5391 74.2109 33.7344 73.1797 32.7188C72.1641 31.6875 71.3594 30.4922 70.7656 29.1328C70.1875 27.7734 69.8984 26.3203 69.8984 24.7734V17.3203H66.7812V10.9453H69.8984V0.914062H76.2734V10.9453H85.9766V17.3203H76.2734V24.7734C76.2734 25.4453 76.3984 26.0781 76.6484 26.6719C76.8984 27.25 77.2422 27.7578 77.6797 28.1953C78.1172 28.6328 78.6328 28.9844 79.2266 29.25C79.8203 29.5 80.4531 29.625 81.125 29.625H85.9766V36H81.125Z" />
</svg>
